#N canvas 1282 47 636 1012 10;
#X obj 89 506 sporth~;
#X obj 104 570 dac~;
#X obj 338 106 vsl 15 128 0 3 0 0 empty empty empty 0 -9 0 10 -262144
-1 -1 8467 1;
#X msg 336 243 pset 0 \$1;
#X msg 77 308 open demo.sp;
#X msg 341 70 3;
#X msg 395 72 1;
#X obj 460 202 vsl 15 128 0 40 0 0 empty empty empty 0 -9 0 10 -262144
-1 -1 9675 1;
#X msg 458 339 pset 1 \$1;
#X msg 517 168 10;
#X obj 17 59 vsl 15 128 0 1 0 0 empty empty empty 0 -9 0 10 -262144
-1 -1 10650 1;
#X msg 12 201 pset 2 \$1;
#X msg 71 30 0.5;
#X msg 12 31 1;
#X obj 236 43 vsl 15 128 0 1 0 0 empty empty empty 0 -9 0 10 -262144
-1 -1 3300 1;
#X msg 279 14 0.5;
#X msg 220 15 1;
#X msg 234 185 pset 3 \$1;
#X msg 459 170 1;
#X text 457 144 rate;
#X text 216 -5 dry level;
#X text 15 7 wet level;
#X text 336 41 transposition;
#X msg 444 78 2;
#X msg 404 128 0.5;
#X msg 418 177 0.5;
#X connect 0 0 1 0;
#X connect 0 0 1 1;
#X connect 2 0 3 0;
#X connect 3 0 0 0;
#X connect 4 0 0 0;
#X connect 5 0 2 0;
#X connect 6 0 2 0;
#X connect 7 0 8 0;
#X connect 8 0 0 0;
#X connect 9 0 7 0;
#X connect 10 0 11 0;
#X connect 11 0 0 0;
#X connect 12 0 10 0;
#X connect 13 0 10 0;
#X connect 14 0 17 0;
#X connect 15 0 14 0;
#X connect 16 0 14 0;
#X connect 17 0 0 0;
#X connect 18 0 7 0;
#X connect 23 0 2 0;
#X connect 24 0 2 0;
#X connect 25 0 7 0;
