#N canvas 1282 47 636 1012 10;
#X obj 39 -139 sporth~;
#X obj 27 82 dac~;
#X msg 26 -220 open amenbroke.sp;
#X floatatom 299 6 5 0 0 0 - - -, f 5;
#X obj 299 -174 vsl 15 128 0 1 0 0 empty empty empty 0 -9 0 10 -262144
-1 -1 0 1;
#X msg 302 73 pset 1 \$1;
#X floatatom 397 1 5 0 0 0 - - -, f 5;
#X obj 395 -171 vsl 15 128 0 3 0 0 empty empty empty 0 -9 0 10 -262144
-1 -1 0 1;
#X msg 396 73 pset 2 \$1;
#X obj 214 -183 vsl 15 128 0 1 0 0 empty empty empty 0 -9 0 10 -262144
-1 -1 0 1;
#X obj 34 -45 *~;
#X text 291 -211 Drive;
#X text 379 -206 Offset;
#X text 202 -211 Volume;
#X obj 196 174 loadbang;
#X msg 179 211 \; pd dsp 1;
#X connect 0 0 10 0;
#X connect 2 0 0 0;
#X connect 3 0 5 0;
#X connect 4 0 3 0;
#X connect 5 0 0 0;
#X connect 6 0 8 0;
#X connect 7 0 6 0;
#X connect 8 0 0 0;
#X connect 9 0 10 1;
#X connect 10 0 1 0;
#X connect 10 0 1 1;
#X connect 14 0 15 0;
